<?xml version="1.0" standalone="no"?>
<svg xmlns:xlink="http://www.w3.org/1999/xlink" width="2480" height="3508" xmlns="http://www.w3.org/2000/svg"><path d="M1198,1858L1029,1623L998,1894Z" fill="rgb(214,68,0)" stroke="rgb(214,68,0)" stroke-width="1.51"/><path d="M1198,1858L1264,1603L1029,1623Z" fill="rgb(213,68,0)" stroke="rgb(213,68,0)" stroke-width="1.51"/><path d="M1029,1623L779,1895L998,1894Z" fill="rgb(217,71,0)" stroke="rgb(217,71,0)" stroke-width="1.51"/><path d="M1264,1603L1037,1380L1029,1623Z" fill="rgb(217,71,0)" stroke="rgb(217,71,0)" stroke-width="1.51"/><path d="M1029,1623L712,1618L779,1895Z" fill="rgb(220,74,0)" stroke="rgb(220,74,0)" stroke-width="1.51"/><path d="M750,1405L712,1618L1029,1623Z" fill="rgb(223,76,0)" stroke="rgb(223,76,0)" stroke-width="1.51"/><path d="M1240,2139L1458,1879L1198,1858Z" fill="rgb(206,61,0)" stroke="rgb(206,61,0)" stroke-width="1.51"/><path d="M1198,1858L1458,1879L1264,1603Z" fill="rgb(209,64,0)" stroke="rgb(209,64,0)" stroke-width="1.51"/><path d="M783,2084L977,2151L998,1894Z" fill="rgb(213,68,0)" stroke="rgb(213,68,0)" stroke-width="1.51"/><path d="M998,1894L1240,2139L1198,1858Z" fill="rgb(210,64,0)" stroke="rgb(210,64,0)" stroke-width="1.51"/><path d="M977,2151L1240,2139L998,1894Z" fill="rgb(210,64,0)" stroke="rgb(210,64,0)" stroke-width="1.51"/><path d="M539,1917L783,2084L779,1895Z" fill="rgb(219,78,9)" stroke="rgb(219,78,9)" stroke-width="1.51"/><path d="M779,1895L783,2084L998,1894Z" fill="rgb(216,70,0)" stroke="rgb(216,70,0)" stroke-width="1.51"/><path d="M1455,1359L1192,1337L1264,1603Z" fill="rgb(214,69,0)" stroke="rgb(214,69,0)" stroke-width="1.51"/><path d="M1264,1603L1192,1337L1037,1380Z" fill="rgb(217,71,0)" stroke="rgb(217,71,0)" stroke-width="1.51"/><path d="M1458,1879L1519,1654L1264,1603Z" fill="rgb(208,63,0)" stroke="rgb(208,63,0)" stroke-width="1.51"/><path d="M1021,1172L750,1405L1037,1380Z" fill="rgb(224,77,0)" stroke="rgb(224,77,0)" stroke-width="1.51"/><path d="M1037,1380L750,1405L1029,1623Z" fill="rgb(222,75,0)" stroke="rgb(222,75,0)" stroke-width="1.51"/><path d="M1240,2139L1496,2109L1458,1879Z" fill="rgb(203,58,0)" stroke="rgb(203,58,0)" stroke-width="1.51"/><path d="M1458,1879L1743,1650L1519,1654Z" fill="rgb(204,59,0)" stroke="rgb(204,59,0)" stroke-width="1.51"/><path d="M1519,1654L1455,1359L1264,1603Z" fill="rgb(210,65,0)" stroke="rgb(210,65,0)" stroke-width="1.51"/><path d="M516,1654L539,1917L712,1618Z" fill="rgb(225,88,18)" stroke="rgb(225,88,18)" stroke-width="1.51"/><path d="M712,1618L539,1917L779,1895Z" fill="rgb(222,82,12)" stroke="rgb(222,82,12)" stroke-width="1.51"/><path d="M515,1416L516,1654L712,1618Z" fill="rgb(228,90,19)" stroke="rgb(228,90,19)" stroke-width="1.51"/><path d="M1263,1151L1021,1172L1192,1337Z" fill="rgb(221,74,0)" stroke="rgb(221,74,0)" stroke-width="1.51"/><path d="M1192,1337L1021,1172L1037,1380Z" fill="rgb(221,75,0)" stroke="rgb(221,75,0)" stroke-width="1.51"/><path d="M783,2084L951,2366L977,2151Z" fill="rgb(211,66,0)" stroke="rgb(211,66,0)" stroke-width="1.51"/><path d="M977,2151L951,2366L1240,2139Z" fill="rgb(208,63,0)" stroke="rgb(208,63,0)" stroke-width="1.51"/><path d="M1240,2139L1532,2386L1496,2109Z" fill="rgb(200,55,0)" stroke="rgb(200,55,0)" stroke-width="1.51"/><path d="M729,2409L951,2366L783,2084Z" fill="rgb(212,66,0)" stroke="rgb(212,66,0)" stroke-width="1.51"/><path d="M1455,1359L1263,1151L1192,1337Z" fill="rgb(217,71,0)" stroke="rgb(217,71,0)" stroke-width="1.51"/><path d="M731,1112L515,1416L750,1405Z" fill="rgb(230,89,13)" stroke="rgb(230,89,13)" stroke-width="1.51"/><path d="M750,1405L515,1416L712,1618Z" fill="rgb(227,87,14)" stroke="rgb(227,87,14)" stroke-width="1.51"/><path d="M247,2099L524,2138L539,1917Z" fill="rgb(223,92,27)" stroke="rgb(223,92,27)" stroke-width="1.51"/><path d="M539,1917L524,2138L783,2084Z" fill="rgb(219,82,16)" stroke="rgb(219,82,16)" stroke-width="1.51"/><path d="M1785,1924L1743,1650L1458,1879Z" fill="rgb(200,56,0)" stroke="rgb(200,56,0)" stroke-width="1.51"/><path d="M1519,1654L1745,1378L1455,1359Z" fill="rgb(208,63,0)" stroke="rgb(208,63,0)" stroke-width="1.51"/><path d="M1455,1359L1536,1113L1263,1151Z" fill="rgb(215,69,0)" stroke="rgb(215,69,0)" stroke-width="1.51"/><path d="M951,2366L1285,2428L1240,2139Z" fill="rgb(204,59,0)" stroke="rgb(204,59,0)" stroke-width="1.51"/><path d="M1778,2080L1785,1924L1496,2109Z" fill="rgb(195,52,0)" stroke="rgb(195,52,0)" stroke-width="1.51"/><path d="M1496,2109L1785,1924L1458,1879Z" fill="rgb(200,56,0)" stroke="rgb(200,56,0)" stroke-width="1.51"/><path d="M524,2138L729,2409L783,2084Z" fill="rgb(216,76,11)" stroke="rgb(216,76,11)" stroke-width="1.51"/><path d="M951,2366L1020,2583L1285,2428Z" fill="rgb(200,58,1)" stroke="rgb(200,58,1)" stroke-width="1.51"/><path d="M1007,830L731,1112L1021,1172Z" fill="rgb(229,85,8)" stroke="rgb(229,85,8)" stroke-width="1.51"/><path d="M1021,1172L731,1112L750,1405Z" fill="rgb(228,80,0)" stroke="rgb(228,80,0)" stroke-width="1.51"/><path d="M1731,2346L1778,2080L1496,2109Z" fill="rgb(194,51,0)" stroke="rgb(194,51,0)" stroke-width="1.51"/><path d="M1285,2428L1532,2386L1240,2139Z" fill="rgb(200,55,0)" stroke="rgb(200,55,0)" stroke-width="1.51"/><path d="M2038,1385L1745,1378L1743,1650Z" fill="rgb(194,56,2)" stroke="rgb(194,56,2)" stroke-width="1.51"/><path d="M1743,1650L1745,1378L1519,1654Z" fill="rgb(204,60,0)" stroke="rgb(204,60,0)" stroke-width="1.51"/><path d="M1745,1378L1536,1113L1455,1359Z" fill="rgb(211,65,0)" stroke="rgb(211,65,0)" stroke-width="1.51"/><path d="M1263,1151L1254,909L1021,1172Z" fill="rgb(223,78,5)" stroke="rgb(223,78,5)" stroke-width="1.51"/><path d="M729,2409L1020,2583L951,2366Z" fill="rgb(204,62,1)" stroke="rgb(204,62,1)" stroke-width="1.51"/><path d="M1285,2428L1502,2675L1532,2386Z" fill="rgb(191,50,1)" stroke="rgb(191,50,1)" stroke-width="1.51"/><path d="M515,1416L236,1629L516,1654Z" fill="rgb(230,99,29)" stroke="rgb(230,99,29)" stroke-width="1.51"/><path d="M516,1654L196,1849L539,1917Z" fill="rgb(227,96,28)" stroke="rgb(227,96,28)" stroke-width="1.51"/><path d="M238,1343L236,1629L515,1416Z" fill="rgb(234,105,34)" stroke="rgb(234,105,34)" stroke-width="1.51"/><path d="M696,874L516,1103L731,1112Z" fill="rgb(234,97,22)" stroke="rgb(234,97,22)" stroke-width="1.51"/><path d="M731,1112L516,1103L515,1416Z" fill="rgb(233,94,19)" stroke="rgb(233,94,19)" stroke-width="1.51"/><path d="M1532,2386L1731,2346L1496,2109Z" fill="rgb(195,51,0)" stroke="rgb(195,51,0)" stroke-width="1.51"/><path d="M1722,2581L1731,2346L1532,2386Z" fill="rgb(188,47,1)" stroke="rgb(188,47,1)" stroke-width="1.51"/><path d="M1504,923L1254,909L1263,1151Z" fill="rgb(220,79,9)" stroke="rgb(220,79,9)" stroke-width="1.51"/><path d="M1020,2583L1241,2635L1285,2428Z" fill="rgb(194,54,2)" stroke="rgb(194,54,2)" stroke-width="1.51"/><path d="M236,1629L196,1849L516,1654Z" fill="rgb(230,103,34)" stroke="rgb(230,103,34)" stroke-width="1.51"/><path d="M524,2138L443,2420L729,2409Z" fill="rgb(216,81,18)" stroke="rgb(216,81,18)" stroke-width="1.51"/><path d="M196,1849L247,2099L539,1917Z" fill="rgb(226,99,33)" stroke="rgb(226,99,33)" stroke-width="1.51"/><path d="M257,2365L443,2420L524,2138Z" fill="rgb(219,90,28)" stroke="rgb(219,90,28)" stroke-width="1.51"/><path d="M729,2409L758,2663L1020,2583Z" fill="rgb(201,61,2)" stroke="rgb(201,61,2)" stroke-width="1.51"/><path d="M1778,2080L2004,1908L1785,1924Z" fill="rgb(186,48,2)" stroke="rgb(186,48,2)" stroke-width="1.51"/><path d="M1785,1924L2004,1908L1743,1650Z" fill="rgb(189,51,2)" stroke="rgb(189,51,2)" stroke-width="1.51"/><path d="M2029,2154L2004,1908L1778,2080Z" fill="rgb(179,45,3)" stroke="rgb(179,45,3)" stroke-width="1.51"/><path d="M1254,909L1007,830L1021,1172Z" fill="rgb(226,84,11)" stroke="rgb(226,84,11)" stroke-width="1.51"/><path d="M516,1103L238,1343L515,1416Z" fill="rgb(235,102,29)" stroke="rgb(235,102,29)" stroke-width="1.51"/><path d="M4,1614L-1,1860L196,1849Z" fill="rgb(233,115,47)" stroke="rgb(233,115,47)" stroke-width="1.51"/><path d="M1744,1080L1504,923L1536,1113Z" fill="rgb(214,72,6)" stroke="rgb(214,72,6)" stroke-width="1.51"/><path d="M1536,1113L1504,923L1263,1151Z" fill="rgb(217,74,5)" stroke="rgb(217,74,5)" stroke-width="1.51"/><path d="M1262,646L942,677L1007,830Z" fill="rgb(230,95,24)" stroke="rgb(230,95,24)" stroke-width="1.51"/><path d="M456,2597L758,2663L729,2409Z" fill="rgb(204,72,14)" stroke="rgb(204,72,14)" stroke-width="1.51"/><path d="M1015,2922L1261,2879L1241,2635Z" fill="rgb(182,49,3)" stroke="rgb(182,49,3)" stroke-width="1.51"/><path d="M1745,1378L1744,1080L1536,1113Z" fill="rgb(209,64,0)" stroke="rgb(209,64,0)" stroke-width="1.51"/><path d="M1961,1081L1744,1080L1745,1378Z" fill="rgb(200,60,2)" stroke="rgb(200,60,2)" stroke-width="1.51"/><path d="M2004,1908L2038,1651L1743,1650Z" fill="rgb(185,50,3)" stroke="rgb(185,50,3)" stroke-width="1.51"/><path d="M1007,830L696,874L731,1112Z" fill="rgb(232,91,15)" stroke="rgb(232,91,15)" stroke-width="1.51"/><path d="M516,1103L249,1105L238,1343Z" fill="rgb(238,108,35)" stroke="rgb(238,108,35)" stroke-width="1.51"/><path d="M1261,2879L1502,2675L1241,2635Z" fill="rgb(182,47,3)" stroke="rgb(182,47,3)" stroke-width="1.51"/><path d="M1241,2635L1502,2675L1285,2428Z" fill="rgb(189,50,2)" stroke="rgb(189,50,2)" stroke-width="1.51"/><path d="M-25,2347L257,2365L247,2099Z" fill="rgb(224,104,41)" stroke="rgb(224,104,41)" stroke-width="1.51"/><path d="M247,2099L257,2365L524,2138Z" fill="rgb(222,95,31)" stroke="rgb(222,95,31)" stroke-width="1.51"/><path d="M443,2420L456,2597L729,2409Z" fill="rgb(210,80,20)" stroke="rgb(210,80,20)" stroke-width="1.51"/><path d="M2037,2355L2029,2154L1731,2346Z" fill="rgb(176,42,3)" stroke="rgb(176,42,3)" stroke-width="1.51"/><path d="M1731,2346L2029,2154L1778,2080Z" fill="rgb(183,45,2)" stroke="rgb(183,45,2)" stroke-width="1.51"/><path d="M2282,1872L2249,1621L2038,1651Z" fill="rgb(169,42,5)" stroke="rgb(169,42,5)" stroke-width="1.51"/><path d="M2038,1651L2038,1385L1743,1650Z" fill="rgb(187,52,3)" stroke="rgb(187,52,3)" stroke-width="1.51"/><path d="M257,2365L456,2597L443,2420Z" fill="rgb(214,89,29)" stroke="rgb(214,89,29)" stroke-width="1.51"/><path d="M1502,2675L1722,2581L1532,2386Z" fill="rgb(185,46,1)" stroke="rgb(185,46,1)" stroke-width="1.51"/><path d="M277,900L249,1105L516,1103Z" fill="rgb(239,113,39)" stroke="rgb(239,113,39)" stroke-width="1.51"/><path d="M4,1614L196,1849L236,1629Z" fill="rgb(233,112,43)" stroke="rgb(233,112,43)" stroke-width="1.51"/><path d="M4,1614L236,1629L-1,1365Z" fill="rgb(237,117,47)" stroke="rgb(237,117,47)" stroke-width="1.51"/><path d="M196,1849L-1,1860L247,2099Z" fill="rgb(229,109,42)" stroke="rgb(229,109,42)" stroke-width="1.51"/><path d="M-1,1365L236,1629L238,1343Z" fill="rgb(237,114,43)" stroke="rgb(237,114,43)" stroke-width="1.51"/><path d="M1262,646L1007,830L1254,909Z" fill="rgb(226,90,20)" stroke="rgb(226,90,20)" stroke-width="1.51"/><path d="M1007,830L942,677L696,874Z" fill="rgb(233,95,21)" stroke="rgb(233,95,21)" stroke-width="1.51"/><path d="M696,874L454,838L516,1103Z" fill="rgb(237,106,31)" stroke="rgb(237,106,31)" stroke-width="1.51"/><path d="M1744,1080L1704,846L1504,923Z" fill="rgb(214,75,11)" stroke="rgb(214,75,11)" stroke-width="1.51"/><path d="M1504,923L1262,646L1254,909Z" fill="rgb(222,86,18)" stroke="rgb(222,86,18)" stroke-width="1.51"/><path d="M1981,841L1704,846L1744,1080Z" fill="rgb(204,72,14)" stroke="rgb(204,72,14)" stroke-width="1.51"/><path d="M2038,1385L1961,1081L1745,1378Z" fill="rgb(192,56,3)" stroke="rgb(192,56,3)" stroke-width="1.51"/><path d="M460,614L454,838L696,874Z" fill="rgb(239,113,39)" stroke="rgb(239,113,39)" stroke-width="1.51"/><path d="M1722,2581L2037,2355L1731,2346Z" fill="rgb(178,42,2)" stroke="rgb(178,42,2)" stroke-width="1.51"/><path d="M2029,2154L2206,2102L2004,1908Z" fill="rgb(170,41,4)" stroke="rgb(170,41,4)" stroke-width="1.51"/><path d="M1015,2922L1020,2583L758,2663Z" fill="rgb(191,55,3)" stroke="rgb(191,55,3)" stroke-width="1.51"/><path d="M1015,2922L1241,2635L1020,2583Z" fill="rgb(188,53,3)" stroke="rgb(188,53,3)" stroke-width="1.51"/><path d="M1502,2675L1788,2894L1722,2581Z" fill="rgb(175,41,3)" stroke="rgb(175,41,3)" stroke-width="1.51"/><path d="M1499,592L1262,646L1504,923Z" fill="rgb(222,89,23)" stroke="rgb(222,89,23)" stroke-width="1.51"/><path d="M-3,1151L238,1343L249,1105Z" fill="rgb(241,117,44)" stroke="rgb(241,117,44)" stroke-width="1.51"/><path d="M-3,1151L-1,1365L238,1343Z" fill="rgb(241,121,48)" stroke="rgb(241,121,48)" stroke-width="1.51"/><path d="M-252,1862L-57,2123L-1,1860Z" fill="rgb(232,116,49)" stroke="rgb(232,116,49)" stroke-width="1.51"/><path d="M740,2884L1015,2922L758,2663Z" fill="rgb(189,55,4)" stroke="rgb(189,55,4)" stroke-width="1.51"/><path d="M528,2914L740,2884L758,2663Z" fill="rgb(192,65,13)" stroke="rgb(192,65,13)" stroke-width="1.51"/><path d="M2037,2355L2206,2102L2029,2154Z" fill="rgb(168,38,4)" stroke="rgb(168,38,4)" stroke-width="1.51"/><path d="M2038,1651L2215,1419L2038,1385Z" fill="rgb(178,48,4)" stroke="rgb(178,48,4)" stroke-width="1.51"/><path d="M454,838L277,900L516,1103Z" fill="rgb(239,113,39)" stroke="rgb(239,113,39)" stroke-width="1.51"/><path d="M2282,1872L2038,1651L2004,1908Z" fill="rgb(172,43,4)" stroke="rgb(172,43,4)" stroke-width="1.51"/><path d="M2038,1385L2214,1148L1961,1081Z" fill="rgb(184,53,4)" stroke="rgb(184,53,4)" stroke-width="1.51"/><path d="M2249,1621L2215,1419L2038,1651Z" fill="rgb(172,45,5)" stroke="rgb(172,45,5)" stroke-width="1.51"/><path d="M-252,1862L-1,1860L-253,1646Z" fill="rgb(234,118,50)" stroke="rgb(234,118,50)" stroke-width="1.51"/><path d="M-1,1860L-57,2123L247,2099Z" fill="rgb(229,112,46)" stroke="rgb(229,112,46)" stroke-width="1.51"/><path d="M257,2365L226,2676L456,2597Z" fill="rgb(211,91,33)" stroke="rgb(211,91,33)" stroke-width="1.51"/><path d="M456,2597L528,2914L758,2663Z" fill="rgb(198,72,19)" stroke="rgb(198,72,19)" stroke-width="1.51"/><path d="M956,424L737,615L942,677Z" fill="rgb(236,104,31)" stroke="rgb(236,104,31)" stroke-width="1.51"/><path d="M942,677L737,615L696,874Z" fill="rgb(236,101,27)" stroke="rgb(236,101,27)" stroke-width="1.51"/><path d="M454,838L192,625L277,900Z" fill="rgb(243,124,50)" stroke="rgb(243,124,50)" stroke-width="1.51"/><path d="M1261,2879L1513,2891L1502,2675Z" fill="rgb(177,44,3)" stroke="rgb(177,44,3)" stroke-width="1.51"/><path d="M1722,2581L1973,2646L2037,2355Z" fill="rgb(168,38,3)" stroke="rgb(168,38,3)" stroke-width="1.51"/><path d="M1463,3176L1513,2891L1261,2879Z" fill="rgb(170,41,4)" stroke="rgb(170,41,4)" stroke-width="1.51"/><path d="M2206,2102L2282,1872L2004,1908Z" fill="rgb(167,40,4)" stroke="rgb(167,40,4)" stroke-width="1.51"/><path d="M-18,914L-3,1151L249,1105Z" fill="rgb(244,126,52)" stroke="rgb(244,126,52)" stroke-width="1.51"/><path d="M-253,1646L-1,1860L4,1614Z" fill="rgb(235,119,50)" stroke="rgb(235,119,50)" stroke-width="1.51"/><path d="M-18,2580L226,2676L257,2365Z" fill="rgb(214,99,40)" stroke="rgb(214,99,40)" stroke-width="1.51"/><path d="M-57,2123L-25,2347L247,2099Z" fill="rgb(227,111,46)" stroke="rgb(227,111,46)" stroke-width="1.51"/><path d="M1711,668L1499,592L1704,846Z" fill="rgb(217,85,23)" stroke="rgb(217,85,23)" stroke-width="1.51"/><path d="M1704,846L1499,592L1504,923Z" fill="rgb(218,83,19)" stroke="rgb(218,83,19)" stroke-width="1.51"/><path d="M1262,646L956,424L942,677Z" fill="rgb(232,100,30)" stroke="rgb(232,100,30)" stroke-width="1.51"/><path d="M1788,2894L1973,2646L1722,2581Z" fill="rgb(166,36,4)" stroke="rgb(166,36,4)" stroke-width="1.51"/><path d="M2037,2355L2286,2395L2206,2102Z" fill="rgb(161,35,4)" stroke="rgb(161,35,4)" stroke-width="1.51"/><path d="M1981,841L1711,668L1704,846Z" fill="rgb(207,78,20)" stroke="rgb(207,78,20)" stroke-width="1.51"/><path d="M1981,841L1744,1080L1961,1081Z" fill="rgb(198,66,10)" stroke="rgb(198,66,10)" stroke-width="1.51"/><path d="M226,2676L528,2914L456,2597Z" fill="rgb(201,82,28)" stroke="rgb(201,82,28)" stroke-width="1.51"/><path d="M1028,3165L1223,3138L1015,2922Z" fill="rgb(172,45,5)" stroke="rgb(172,45,5)" stroke-width="1.51"/><path d="M2224,882L1981,841L1961,1081Z" fill="rgb(188,64,14)" stroke="rgb(188,64,14)" stroke-width="1.51"/><path d="M2533,1381L2214,1148L2215,1419Z" fill="rgb(166,44,6)" stroke="rgb(166,44,6)" stroke-width="1.51"/><path d="M2215,1419L2214,1148L2038,1385Z" fill="rgb(177,49,5)" stroke="rgb(177,49,5)" stroke-width="1.51"/><path d="M2480,1628L2215,1419L2249,1621Z" fill="rgb(163,41,6)" stroke="rgb(163,41,6)" stroke-width="1.51"/><path d="M737,615L460,614L696,874Z" fill="rgb(239,110,37)" stroke="rgb(239,110,37)" stroke-width="1.51"/><path d="M277,900L-18,914L249,1105Z" fill="rgb(243,124,50)" stroke="rgb(243,124,50)" stroke-width="1.51"/><path d="M502,388L460,614L737,615Z" fill="rgb(242,120,46)" stroke="rgb(242,120,46)" stroke-width="1.51"/><path d="M1715,3177L1788,2894L1513,2891Z" fill="rgb(163,35,4)" stroke="rgb(163,35,4)" stroke-width="1.51"/><path d="M1513,2891L1788,2894L1502,2675Z" fill="rgb(173,40,3)" stroke="rgb(173,40,3)" stroke-width="1.51"/><path d="M-253,1646L4,1614L-261,1370Z" fill="rgb(238,121,51)" stroke="rgb(238,121,51)" stroke-width="1.51"/><path d="M-57,2123L-254,2107L-25,2347Z" fill="rgb(228,113,49)" stroke="rgb(228,113,49)" stroke-width="1.51"/><path d="M-261,1370L4,1614L-1,1365Z" fill="rgb(239,123,51)" stroke="rgb(239,123,51)" stroke-width="1.51"/><path d="M1266,350L956,424L1262,646Z" fill="rgb(231,103,33)" stroke="rgb(231,103,33)" stroke-width="1.51"/><path d="M2214,2650L2037,2355L1973,2646Z" fill="rgb(157,32,4)" stroke="rgb(157,32,4)" stroke-width="1.51"/><path d="M2214,2650L2286,2395L2037,2355Z" fill="rgb(155,31,5)" stroke="rgb(155,31,5)" stroke-width="1.51"/><path d="M2499,2129L2539,1854L2282,1872Z" fill="rgb(150,32,6)" stroke="rgb(150,32,6)" stroke-width="1.51"/><path d="M-234,2606L-18,2580L-25,2347Z" fill="rgb(218,108,48)" stroke="rgb(218,108,48)" stroke-width="1.51"/><path d="M-25,2347L-18,2580L257,2365Z" fill="rgb(220,106,45)" stroke="rgb(220,106,45)" stroke-width="1.51"/><path d="M226,2676L205,2907L528,2914Z" fill="rgb(198,84,32)" stroke="rgb(198,84,32)" stroke-width="1.51"/><path d="M-299,2376L-254,2107L-252,1862Z" fill="rgb(229,114,49)" stroke="rgb(229,114,49)" stroke-width="1.51"/><path d="M-252,1862L-254,2107L-57,2123Z" fill="rgb(230,115,49)" stroke="rgb(230,115,49)" stroke-width="1.51"/><path d="M1028,3165L1015,2922L782,3176Z" fill="rgb(175,48,5)" stroke="rgb(175,48,5)" stroke-width="1.51"/><path d="M1015,2922L1223,3138L1261,2879Z" fill="rgb(175,46,4)" stroke="rgb(175,46,4)" stroke-width="1.51"/><path d="M192,625L-18,914L277,900Z" fill="rgb(245,131,57)" stroke="rgb(245,131,57)" stroke-width="1.51"/><path d="M-3,1151L-261,1370L-1,1365Z" fill="rgb(242,124,52)" stroke="rgb(242,124,52)" stroke-width="1.51"/><path d="M-214,1080L-261,1370L-3,1151Z" fill="rgb(243,126,52)" stroke="rgb(243,126,52)" stroke-width="1.51"/><path d="M-253,1646L-299,2376L-252,1862Z" fill="rgb(231,116,49)" stroke="rgb(231,116,49)" stroke-width="1.51"/><path d="M782,3176L1015,2922L740,2884Z" fill="rgb(181,52,5)" stroke="rgb(181,52,5)" stroke-width="1.51"/><path d="M2539,1854L2480,1628L2282,1872Z" fill="rgb(153,34,6)" stroke="rgb(153,34,6)" stroke-width="1.51"/><path d="M2282,1872L2480,1628L2249,1621Z" fill="rgb(160,38,6)" stroke="rgb(160,38,6)" stroke-width="1.51"/><path d="M1443,333L1266,350L1499,592Z" fill="rgb(226,100,34)" stroke="rgb(226,100,34)" stroke-width="1.51"/><path d="M1499,592L1266,350L1262,646Z" fill="rgb(226,97,31)" stroke="rgb(226,97,31)" stroke-width="1.51"/><path d="M1443,333L1499,592L1777,412Z" fill="rgb(222,96,33)" stroke="rgb(222,96,33)" stroke-width="1.51"/><path d="M718,114L714,384L956,424Z" fill="rgb(241,116,42)" stroke="rgb(241,116,42)" stroke-width="1.51"/><path d="M956,424L714,384L737,615Z" fill="rgb(238,110,36)" stroke="rgb(238,110,36)" stroke-width="1.51"/><path d="M460,614L192,625L454,838Z" fill="rgb(243,124,50)" stroke="rgb(243,124,50)" stroke-width="1.51"/><path d="M-17,2908L205,2907L226,2676Z" fill="rgb(201,94,41)" stroke="rgb(201,94,41)" stroke-width="1.51"/><path d="M481,3084L782,3176L740,2884Z" fill="rgb(182,61,14)" stroke="rgb(182,61,14)" stroke-width="1.51"/><path d="M2212,2847L2214,2650L1973,2646Z" fill="rgb(147,27,5)" stroke="rgb(147,27,5)" stroke-width="1.51"/><path d="M481,3084L740,2884L528,2914Z" fill="rgb(187,67,19)" stroke="rgb(187,67,19)" stroke-width="1.51"/><path d="M257,386L192,625L460,614Z" fill="rgb(246,133,59)" stroke="rgb(246,133,59)" stroke-width="1.51"/><path d="M205,2907L481,3084L528,2914Z" fill="rgb(190,77,28)" stroke="rgb(190,77,28)" stroke-width="1.51"/><path d="M2502,1088L2224,882L2214,1148Z" fill="rgb(171,52,11)" stroke="rgb(171,52,11)" stroke-width="1.51"/><path d="M2214,1148L2224,882L1961,1081Z" fill="rgb(182,57,10)" stroke="rgb(182,57,10)" stroke-width="1.51"/><path d="M1981,841L2005,597L1711,668Z" fill="rgb(201,78,23)" stroke="rgb(201,78,23)" stroke-width="1.51"/><path d="M1987,3122L1972,2917L1788,2894Z" fill="rgb(149,28,5)" stroke="rgb(149,28,5)" stroke-width="1.51"/><path d="M1788,2894L1972,2917L1973,2646Z" fill="rgb(156,32,4)" stroke="rgb(156,32,4)" stroke-width="1.51"/><path d="M1258,3428L1463,3176L1223,3138Z" fill="rgb(160,37,5)" stroke="rgb(160,37,5)" stroke-width="1.51"/><path d="M1223,3138L1463,3176L1261,2879Z" fill="rgb(168,41,4)" stroke="rgb(168,41,4)" stroke-width="1.51"/><path d="M988,3329L1223,3138L1028,3165Z" fill="rgb(166,43,5)" stroke="rgb(166,43,5)" stroke-width="1.51"/><path d="M-307,891L-214,1080L-18,914Z" fill="rgb(246,133,59)" stroke="rgb(246,133,59)" stroke-width="1.51"/><path d="M-18,914L-214,1080L-3,1151Z" fill="rgb(245,130,56)" stroke="rgb(245,130,56)" stroke-width="1.51"/><path d="M2499,2129L2206,2102L2286,2395Z" fill="rgb(153,31,5)" stroke="rgb(153,31,5)" stroke-width="1.51"/><path d="M2499,2129L2282,1872L2206,2102Z" fill="rgb(155,34,5)" stroke="rgb(155,34,5)" stroke-width="1.51"/><path d="M2446,2427L2499,2129L2286,2395Z" fill="rgb(146,27,5)" stroke="rgb(146,27,5)" stroke-width="1.51"/><path d="M1777,412L1499,592L1711,668Z" fill="rgb(218,90,28)" stroke="rgb(218,90,28)" stroke-width="1.51"/><path d="M257,386L502,388L448,87Z" fill="rgb(247,137,63)" stroke="rgb(247,137,63)" stroke-width="1.51"/><path d="M2283,658L2005,597L1981,841Z" fill="rgb(189,72,24)" stroke="rgb(189,72,24)" stroke-width="1.51"/><path d="M714,384L502,388L737,615Z" fill="rgb(241,118,44)" stroke="rgb(241,118,44)" stroke-width="1.51"/><path d="M502,388L714,384L718,114Z" fill="rgb(243,125,51)" stroke="rgb(243,125,51)" stroke-width="1.51"/><path d="M2783,1626L2533,1381L2480,1628Z" fill="rgb(153,37,6)" stroke="rgb(153,37,6)" stroke-width="1.51"/><path d="M2480,1628L2533,1381L2215,1419Z" fill="rgb(159,40,6)" stroke="rgb(159,40,6)" stroke-width="1.51"/><path d="M-254,2107L-299,2376L-25,2347Z" fill="rgb(227,112,48)" stroke="rgb(227,112,48)" stroke-width="1.51"/><path d="M-18,2580L-17,2908L226,2676Z" fill="rgb(207,100,44)" stroke="rgb(207,100,44)" stroke-width="1.51"/><path d="M-261,1370L-299,2376L-253,1646Z" fill="rgb(234,118,50)" stroke="rgb(234,118,50)" stroke-width="1.51"/><path d="M2530,2587L2446,2427L2214,2650Z" fill="rgb(138,23,5)" stroke="rgb(138,23,5)" stroke-width="1.51"/><path d="M2214,2650L2446,2427L2286,2395Z" fill="rgb(145,26,5)" stroke="rgb(145,26,5)" stroke-width="1.51"/><path d="M2005,597L1777,412L1711,668Z" fill="rgb(207,85,28)" stroke="rgb(207,85,28)" stroke-width="1.51"/><path d="M1463,3176L1715,3177L1513,2891Z" fill="rgb(162,36,4)" stroke="rgb(162,36,4)" stroke-width="1.51"/><path d="M1522,3387L1715,3177L1463,3176Z" fill="rgb(155,32,5)" stroke="rgb(155,32,5)" stroke-width="1.51"/><path d="M-299,2376L-234,2606L-25,2347Z" fill="rgb(221,109,48)" stroke="rgb(221,109,48)" stroke-width="1.51"/><path d="M757,3360L988,3329L782,3176Z" fill="rgb(168,46,6)" stroke="rgb(168,46,6)" stroke-width="1.51"/><path d="M782,3176L988,3329L1028,3165Z" fill="rgb(169,45,6)" stroke="rgb(169,45,6)" stroke-width="1.51"/><path d="M1972,2917L2212,2847L1973,2646Z" fill="rgb(148,28,5)" stroke="rgb(148,28,5)" stroke-width="1.51"/><path d="M2198,3133L2212,2847L1972,2917Z" fill="rgb(136,22,5)" stroke="rgb(136,22,5)" stroke-width="1.51"/><path d="M2533,1381L2502,1088L2214,1148Z" fill="rgb(162,43,7)" stroke="rgb(162,43,7)" stroke-width="1.51"/><path d="M2224,882L2283,658L1981,841Z" fill="rgb(183,67,20)" stroke="rgb(183,67,20)" stroke-width="1.51"/><path d="M205,2907L269,3138L481,3084Z" fill="rgb(188,80,32)" stroke="rgb(188,80,32)" stroke-width="1.51"/><path d="M462,3368L757,3360L782,3176Z" fill="rgb(171,56,15)" stroke="rgb(171,56,15)" stroke-width="1.51"/><path d="M-234,2606L-17,2908L-18,2580Z" fill="rgb(209,104,47)" stroke="rgb(209,104,47)" stroke-width="1.51"/><path d="M-32,3156L269,3138L205,2907Z" fill="rgb(190,88,40)" stroke="rgb(190,88,40)" stroke-width="1.51"/><path d="M10,412L-2,588L192,625Z" fill="rgb(249,145,70)" stroke="rgb(249,145,70)" stroke-width="1.51"/><path d="M192,625L-2,588L-18,914Z" fill="rgb(248,140,65)" stroke="rgb(248,140,65)" stroke-width="1.51"/><path d="M1206,161L956,424L1266,350Z" fill="rgb(233,109,39)" stroke="rgb(233,109,39)" stroke-width="1.51"/><path d="M502,388L257,386L460,614Z" fill="rgb(245,131,57)" stroke="rgb(245,131,57)" stroke-width="1.51"/><path d="M1442,113L1266,350L1443,333Z" fill="rgb(228,107,40)" stroke="rgb(228,107,40)" stroke-width="1.51"/><path d="M1442,113L1206,161L1266,350Z" fill="rgb(231,110,42)" stroke="rgb(231,110,42)" stroke-width="1.51"/><path d="M462,3368L782,3176L481,3084Z" fill="rgb(176,63,20)" stroke="rgb(176,63,20)" stroke-width="1.51"/><path d="M1771,3361L1987,3122L1715,3177Z" fill="rgb(144,26,5)" stroke="rgb(144,26,5)" stroke-width="1.51"/><path d="M1715,3177L1987,3122L1788,2894Z" fill="rgb(150,29,5)" stroke="rgb(150,29,5)" stroke-width="1.51"/><path d="M2502,1088L2445,872L2224,882Z" fill="rgb(167,54,15)" stroke="rgb(167,54,15)" stroke-width="1.51"/><path d="M2005,597L1980,342L1777,412Z" fill="rgb(203,87,32)" stroke="rgb(203,87,32)" stroke-width="1.51"/><path d="M2445,872L2283,658L2224,882Z" fill="rgb(174,62,20)" stroke="rgb(174,62,20)" stroke-width="1.51"/><path d="M-289,674L-307,891L-18,914Z" fill="rgb(247,138,64)" stroke="rgb(247,138,64)" stroke-width="1.51"/><path d="M-214,1080L-307,891L-261,1370Z" fill="rgb(244,128,54)" stroke="rgb(244,128,54)" stroke-width="1.51"/><path d="M-261,1370L-307,891L-299,2376Z" fill="rgb(238,121,51)" stroke="rgb(238,121,51)" stroke-width="1.51"/><path d="M2697,2152L2733,1839L2539,1854Z" fill="rgb(147,31,6)" stroke="rgb(147,31,6)" stroke-width="1.51"/><path d="M2539,1854L2733,1839L2480,1628Z" fill="rgb(150,33,6)" stroke="rgb(150,33,6)" stroke-width="1.51"/><path d="M2533,1381L2785,1336L2502,1088Z" fill="rgb(157,40,7)" stroke="rgb(157,40,7)" stroke-width="1.51"/><path d="M2751,916L2508,642L2445,872Z" fill="rgb(163,57,20)" stroke="rgb(163,57,20)" stroke-width="1.51"/><path d="M2697,2152L2539,1854L2499,2129Z" fill="rgb(146,29,6)" stroke="rgb(146,29,6)" stroke-width="1.51"/><path d="M2446,2427L2697,2152L2499,2129Z" fill="rgb(143,26,5)" stroke="rgb(143,26,5)" stroke-width="1.51"/><path d="M2761,2352L2697,2152L2446,2427Z" fill="rgb(142,25,5)" stroke="rgb(142,25,5)" stroke-width="1.51"/><path d="M2473,2869L2214,2650L2212,2847Z" fill="rgb(134,21,5)" stroke="rgb(134,21,5)" stroke-width="1.51"/><path d="M2473,2869L2530,2587L2214,2650Z" fill="rgb(131,19,5)" stroke="rgb(131,19,5)" stroke-width="1.51"/><path d="M946,3637L1258,3428L988,3329Z" fill="rgb(156,38,6)" stroke="rgb(156,38,6)" stroke-width="1.51"/><path d="M988,3329L1258,3428L1223,3138Z" fill="rgb(161,39,6)" stroke="rgb(161,39,6)" stroke-width="1.51"/><path d="M1258,3428L1522,3387L1463,3176Z" fill="rgb(154,34,5)" stroke="rgb(154,34,5)" stroke-width="1.51"/><path d="M1206,161L970,86L956,424Z" fill="rgb(236,114,43)" stroke="rgb(236,114,43)" stroke-width="1.51"/><path d="M2225,367L1980,342L2005,597Z" fill="rgb(194,83,33)" stroke="rgb(194,83,33)" stroke-width="1.51"/><path d="M1692,152L1442,113L1443,333Z" fill="rgb(226,106,42)" stroke="rgb(226,106,42)" stroke-width="1.51"/><path d="M1206,161L1038,-76L970,86Z" fill="rgb(238,120,49)" stroke="rgb(238,120,49)" stroke-width="1.51"/><path d="M970,86L718,114L956,424Z" fill="rgb(240,118,44)" stroke="rgb(240,118,44)" stroke-width="1.51"/><path d="M1692,152L1443,333L1777,412Z" fill="rgb(223,101,38)" stroke="rgb(223,101,38)" stroke-width="1.51"/><path d="M2761,2352L2783,1626L2733,1839Z" fill="rgb(148,31,6)" stroke="rgb(148,31,6)" stroke-width="1.51"/><path d="M2733,1839L2783,1626L2480,1628Z" fill="rgb(151,34,6)" stroke="rgb(151,34,6)" stroke-width="1.51"/><path d="M259,3357L462,3368L269,3138Z" fill="rgb(177,74,31)" stroke="rgb(177,74,31)" stroke-width="1.51"/><path d="M269,3138L462,3368L481,3084Z" fill="rgb(180,72,28)" stroke="rgb(180,72,28)" stroke-width="1.51"/><path d="M757,3360L946,3637L988,3329Z" fill="rgb(160,42,7)" stroke="rgb(160,42,7)" stroke-width="1.51"/><path d="M257,386L10,412L192,625Z" fill="rgb(249,143,69)" stroke="rgb(249,143,69)" stroke-width="1.51"/><path d="M-2,588L-289,674L-18,914Z" fill="rgb(248,142,67)" stroke="rgb(248,142,67)" stroke-width="1.51"/><path d="M208,173L10,412L257,386Z" fill="rgb(250,148,73)" stroke="rgb(250,148,73)" stroke-width="1.51"/><path d="M1980,342L1692,152L1777,412Z" fill="rgb(212,96,38)" stroke="rgb(212,96,38)" stroke-width="1.51"/><path d="M1522,3387L1771,3361L1715,3177Z" fill="rgb(149,28,5)" stroke="rgb(149,28,5)" stroke-width="1.51"/><path d="M1987,3122L2198,3133L1972,2917Z" fill="rgb(137,22,5)" stroke="rgb(137,22,5)" stroke-width="1.51"/><path d="M2017,3360L1771,3361L1956,3581Z" fill="rgb(129,18,5)" stroke="rgb(129,18,5)" stroke-width="1.51"/><path d="M-299,2376L-293,2837L-234,2606Z" fill="rgb(213,106,48)" stroke="rgb(213,106,48)" stroke-width="1.51"/><path d="M-234,2606L-293,2837L-17,2908Z" fill="rgb(205,102,47)" stroke="rgb(205,102,47)" stroke-width="1.51"/><path d="M-17,2908L-32,3156L205,2907Z" fill="rgb(195,95,44)" stroke="rgb(195,95,44)" stroke-width="1.51"/><path d="M-286,349L-289,674L-2,588Z" fill="rgb(250,148,74)" stroke="rgb(250,148,74)" stroke-width="1.51"/><path d="M2783,1626L2785,1336L2533,1381Z" fill="rgb(155,38,7)" stroke="rgb(155,38,7)" stroke-width="1.51"/><path d="M2017,3360L2198,3133L1987,3122Z" fill="rgb(130,19,5)" stroke="rgb(130,19,5)" stroke-width="1.51"/><path d="M2198,3133L2473,2869L2212,2847Z" fill="rgb(127,17,5)" stroke="rgb(127,17,5)" stroke-width="1.51"/><path d="M2530,2587L2761,2352L2446,2427Z" fill="rgb(137,22,5)" stroke="rgb(137,22,5)" stroke-width="1.51"/><path d="M-297,3089L-32,3156L-17,2908Z" fill="rgb(193,96,47)" stroke="rgb(193,96,47)" stroke-width="1.51"/><path d="M2705,2590L2761,2352L2530,2587Z" fill="rgb(135,21,5)" stroke="rgb(135,21,5)" stroke-width="1.51"/><path d="M2697,2152L2761,2352L2733,1839Z" fill="rgb(145,28,6)" stroke="rgb(145,28,6)" stroke-width="1.51"/><path d="M24,3343L259,3357L269,3138Z" fill="rgb(180,82,38)" stroke="rgb(180,82,38)" stroke-width="1.51"/><path d="M692,3607L946,3637L757,3360Z" fill="rgb(159,44,8)" stroke="rgb(159,44,8)" stroke-width="1.51"/><path d="M718,114L448,87L502,388Z" fill="rgb(246,133,58)" stroke="rgb(246,133,58)" stroke-width="1.51"/><path d="M492,-96L448,87L718,114Z" fill="rgb(247,139,64)" stroke="rgb(247,139,64)" stroke-width="1.51"/><path d="M2283,658L2225,367L2005,597Z" fill="rgb(186,76,29)" stroke="rgb(186,76,29)" stroke-width="1.51"/><path d="M1980,342L1956,125L1692,152Z" fill="rgb(209,97,41)" stroke="rgb(209,97,41)" stroke-width="1.51"/><path d="M2455,366L2225,367L2283,658Z" fill="rgb(177,75,31)" stroke="rgb(177,75,31)" stroke-width="1.51"/><path d="M2508,642L2283,658L2445,872Z" fill="rgb(169,62,23)" stroke="rgb(169,62,23)" stroke-width="1.51"/><path d="M448,87L208,173L257,386Z" fill="rgb(249,145,70)" stroke="rgb(249,145,70)" stroke-width="1.51"/><path d="M10,412L-286,349L-2,588Z" fill="rgb(251,151,77)" stroke="rgb(251,151,77)" stroke-width="1.51"/><path d="M2751,916L2445,872L2502,1088Z" fill="rgb(161,51,15)" stroke="rgb(161,51,15)" stroke-width="1.51"/><path d="M2719,2834L2705,2590L2530,2587Z" fill="rgb(128,18,5)" stroke="rgb(128,18,5)" stroke-width="1.51"/><path d="M2785,1336L2773,1085L2502,1088Z" fill="rgb(159,42,7)" stroke="rgb(159,42,7)" stroke-width="1.51"/><path d="M1265,-129L1038,-76L1206,161Z" fill="rgb(236,120,50)" stroke="rgb(236,120,50)" stroke-width="1.51"/><path d="M970,86L695,-152L718,114Z" fill="rgb(244,127,53)" stroke="rgb(244,127,53)" stroke-width="1.51"/><path d="M1265,-129L1206,161L1442,113Z" fill="rgb(233,116,48)" stroke="rgb(233,116,48)" stroke-width="1.51"/><path d="M1771,3361L2017,3360L1987,3122Z" fill="rgb(135,21,5)" stroke="rgb(135,21,5)" stroke-width="1.51"/><path d="M2502,3157L2719,2834L2473,2869Z" fill="rgb(116,11,4)" stroke="rgb(116,11,4)" stroke-width="1.51"/><path d="M1789,3648L1771,3361L1522,3387Z" fill="rgb(141,24,5)" stroke="rgb(141,24,5)" stroke-width="1.51"/><path d="M2199,123L1956,125L1980,342Z" fill="rgb(198,92,41)" stroke="rgb(198,92,41)" stroke-width="1.51"/><path d="M1533,-100L1265,-129L1442,113Z" fill="rgb(231,116,49)" stroke="rgb(231,116,49)" stroke-width="1.51"/><path d="M692,3607L757,3360L462,3368Z" fill="rgb(165,55,17)" stroke="rgb(165,55,17)" stroke-width="1.51"/><path d="M1258,3428L1471,3633L1522,3387Z" fill="rgb(148,30,6)" stroke="rgb(148,30,6)" stroke-width="1.51"/><path d="M2773,1085L2751,916L2502,1088Z" fill="rgb(161,48,12)" stroke="rgb(161,48,12)" stroke-width="1.51"/><path d="M482,3676L692,3607L462,3368Z" fill="rgb(164,59,21)" stroke="rgb(164,59,21)" stroke-width="1.51"/><path d="M946,3637L1235,3645L1258,3428Z" fill="rgb(152,35,6)" stroke="rgb(152,35,6)" stroke-width="1.51"/><path d="M-32,3156L24,3343L269,3138Z" fill="rgb(184,88,42)" stroke="rgb(184,88,42)" stroke-width="1.51"/><path d="M224,3645L482,3676L462,3368Z" fill="rgb(166,67,28)" stroke="rgb(166,67,28)" stroke-width="1.51"/><path d="M-223,3363L24,3343L-32,3156Z" fill="rgb(182,91,46)" stroke="rgb(182,91,46)" stroke-width="1.51"/><path d="M1533,-100L1442,113L1692,152Z" fill="rgb(227,111,47)" stroke="rgb(227,111,47)" stroke-width="1.51"/><path d="M1235,3645L1471,3633L1258,3428Z" fill="rgb(149,32,6)" stroke="rgb(149,32,6)" stroke-width="1.51"/><path d="M-299,2376L-297,3089L-293,2837Z" fill="rgb(206,102,47)" stroke="rgb(206,102,47)" stroke-width="1.51"/><path d="M-293,2837L-297,3089L-17,2908Z" fill="rgb(198,98,47)" stroke="rgb(198,98,47)" stroke-width="1.51"/><path d="M-307,891L-297,3089L-299,2376Z" fill="rgb(229,114,49)" stroke="rgb(229,114,49)" stroke-width="1.51"/><path d="M1729,-160L1533,-100L1692,152Z" fill="rgb(226,112,48)" stroke="rgb(226,112,48)" stroke-width="1.51"/><path d="M695,-152L970,86L1038,-76Z" fill="rgb(242,125,52)" stroke="rgb(242,125,52)" stroke-width="1.51"/><path d="M695,-152L492,-96L718,114Z" fill="rgb(247,136,61)" stroke="rgb(247,136,61)" stroke-width="1.51"/><path d="M448,87L287,-107L208,173Z" fill="rgb(251,150,75)" stroke="rgb(251,150,75)" stroke-width="1.51"/><path d="M757,-336L695,-152L1038,-76Z" fill="rgb(244,126,52)" stroke="rgb(244,126,52)" stroke-width="1.51"/><path d="M2502,3157L2473,2869L2198,3133Z" fill="rgb(117,12,4)" stroke="rgb(117,12,4)" stroke-width="1.51"/><path d="M2473,2869L2719,2834L2530,2587Z" fill="rgb(124,15,4)" stroke="rgb(124,15,4)" stroke-width="1.51"/><path d="M2705,2590L2719,2834L2761,2352Z" fill="rgb(131,19,5)" stroke="rgb(131,19,5)" stroke-width="1.51"/><path d="M2225,367L2199,123L1980,342Z" fill="rgb(191,87,38)" stroke="rgb(191,87,38)" stroke-width="1.51"/><path d="M1956,125L1729,-160L1692,152Z" fill="rgb(216,106,46)" stroke="rgb(216,106,46)" stroke-width="1.51"/><path d="M2508,642L2455,366L2283,658Z" fill="rgb(170,69,28)" stroke="rgb(170,69,28)" stroke-width="1.51"/><path d="M2730,395L2455,366L2508,642Z" fill="rgb(167,70,31)" stroke="rgb(167,70,31)" stroke-width="1.51"/><path d="M-39,97L10,412L208,173Z" fill="rgb(252,156,81)" stroke="rgb(252,156,81)" stroke-width="1.51"/><path d="M-211,139L-286,349L10,412Z" fill="rgb(252,157,82)" stroke="rgb(252,157,82)" stroke-width="1.51"/><path d="M-289,674L-286,349L-307,891Z" fill="rgb(249,145,70)" stroke="rgb(249,145,70)" stroke-width="1.51"/><path d="M2243,3674L2284,3340L2017,3360Z" fill="rgb(113,9,3)" stroke="rgb(113,9,3)" stroke-width="1.51"/><path d="M2017,3360L2284,3340L2198,3133Z" fill="rgb(121,14,4)" stroke="rgb(121,14,4)" stroke-width="1.51"/><path d="M2455,366L2199,123L2225,367Z" fill="rgb(181,82,37)" stroke="rgb(181,82,37)" stroke-width="1.51"/><path d="M2284,3340L2502,3157L2198,3133Z" fill="rgb(114,10,3)" stroke="rgb(114,10,3)" stroke-width="1.51"/><path d="M703,3891L956,3891L946,3637Z" fill="rgb(158,41,7)" stroke="rgb(158,41,7)" stroke-width="1.51"/><path d="M946,3637L1243,3853L1235,3645Z" fill="rgb(152,36,6)" stroke="rgb(152,36,6)" stroke-width="1.51"/><path d="M224,3645L462,3368L259,3357Z" fill="rgb(170,72,32)" stroke="rgb(170,72,32)" stroke-width="1.51"/><path d="M-18,-122L-39,97L208,173Z" fill="rgb(254,163,88)" stroke="rgb(254,163,88)" stroke-width="1.51"/><path d="M1471,3633L1789,3648L1522,3387Z" fill="rgb(143,26,5)" stroke="rgb(143,26,5)" stroke-width="1.51"/><path d="M1513,3832L1789,3648L1471,3633Z" fill="rgb(143,26,5)" stroke="rgb(143,26,5)" stroke-width="1.51"/><path d="M1243,3853L1471,3633L1235,3645Z" fill="rgb(149,32,6)" stroke="rgb(149,32,6)" stroke-width="1.51"/><path d="M1789,3648L1956,3581L1771,3361Z" fill="rgb(131,19,5)" stroke="rgb(131,19,5)" stroke-width="1.51"/><path d="M2773,1085L2755,617L2751,916Z" fill="rgb(163,55,18)" stroke="rgb(163,55,18)" stroke-width="1.51"/><path d="M2751,916L2755,617L2508,642Z" fill="rgb(164,60,23)" stroke="rgb(164,60,23)" stroke-width="1.51"/><path d="M2284,-154L1967,-146L2199,123Z" fill="rgb(193,96,47)" stroke="rgb(193,96,47)" stroke-width="1.51"/><path d="M2785,1336L2755,617L2773,1085Z" fill="rgb(161,49,13)" stroke="rgb(161,49,13)" stroke-width="1.51"/><path d="M1967,-146L1729,-160L1956,125Z" fill="rgb(211,104,48)" stroke="rgb(211,104,48)" stroke-width="1.51"/><path d="M1476,-373L1267,-365L1265,-129Z" fill="rgb(233,117,50)" stroke="rgb(233,117,50)" stroke-width="1.51"/><path d="M1010,-393L757,-336L1038,-76Z" fill="rgb(241,124,51)" stroke="rgb(241,124,51)" stroke-width="1.51"/><path d="M492,-96L287,-107L448,87Z" fill="rgb(250,147,72)" stroke="rgb(250,147,72)" stroke-width="1.51"/><path d="M453,-347L287,-107L492,-96Z" fill="rgb(250,147,72)" stroke="rgb(250,147,72)" stroke-width="1.51"/><path d="M-297,3089L-223,3363L-32,3156Z" fill="rgb(186,93,46)" stroke="rgb(186,93,46)" stroke-width="1.51"/><path d="M24,3343L224,3645L259,3357Z" fill="rgb(173,79,38)" stroke="rgb(173,79,38)" stroke-width="1.51"/><path d="M-37,3620L224,3645L24,3343Z" fill="rgb(171,83,42)" stroke="rgb(171,83,42)" stroke-width="1.51"/><path d="M-18,-122L-211,139L-39,97Z" fill="rgb(255,166,91)" stroke="rgb(255,166,91)" stroke-width="1.51"/><path d="M-39,97L-211,139L10,412Z" fill="rgb(253,160,85)" stroke="rgb(253,160,85)" stroke-width="1.51"/><path d="M946,3637L692,3607L703,3891Z" fill="rgb(160,45,9)" stroke="rgb(160,45,9)" stroke-width="1.51"/><path d="M956,3891L1243,3853L946,3637Z" fill="rgb(154,37,6)" stroke="rgb(154,37,6)" stroke-width="1.51"/><path d="M2478,3628L2451,3360L2284,3340Z" fill="rgb(101,3,1)" stroke="rgb(101,3,1)" stroke-width="1.51"/><path d="M2284,3340L2451,3360L2502,3157Z" fill="rgb(107,6,2)" stroke="rgb(107,6,2)" stroke-width="1.51"/><path d="M2502,3157L2773,3151L2719,2834Z" fill="rgb(112,9,3)" stroke="rgb(112,9,3)" stroke-width="1.51"/><path d="M2514,132L2199,123L2455,366Z" fill="rgb(176,82,39)" stroke="rgb(176,82,39)" stroke-width="1.51"/><path d="M2199,123L1967,-146L1956,125Z" fill="rgb(200,98,46)" stroke="rgb(200,98,46)" stroke-width="1.51"/><path d="M1243,3853L1513,3832L1471,3633Z" fill="rgb(147,30,6)" stroke="rgb(147,30,6)" stroke-width="1.51"/><path d="M1789,3648L2036,3895L1956,3581Z" fill="rgb(126,16,5)" stroke="rgb(126,16,5)" stroke-width="1.51"/><path d="M1956,3581L2243,3674L2017,3360Z" fill="rgb(117,12,4)" stroke="rgb(117,12,4)" stroke-width="1.51"/><path d="M1010,-393L1038,-76L1265,-129Z" fill="rgb(238,121,51)" stroke="rgb(238,121,51)" stroke-width="1.51"/><path d="M695,-152L453,-347L492,-96Z" fill="rgb(248,140,66)" stroke="rgb(248,140,66)" stroke-width="1.51"/><path d="M1265,-129L1533,-100L1476,-373Z" fill="rgb(231,116,49)" stroke="rgb(231,116,49)" stroke-width="1.51"/><path d="M507,3835L692,3607L482,3676Z" fill="rgb(164,58,20)" stroke="rgb(164,58,20)" stroke-width="1.51"/><path d="M1243,3853L1703,3894L1513,3832Z" fill="rgb(145,28,6)" stroke="rgb(145,28,6)" stroke-width="1.51"/><path d="M1476,-373L1533,-100L1729,-160Z" fill="rgb(227,113,48)" stroke="rgb(227,113,48)" stroke-width="1.51"/><path d="M250,3870L507,3835L482,3676Z" fill="rgb(166,66,27)" stroke="rgb(166,66,27)" stroke-width="1.51"/><path d="M250,3870L482,3676L224,3645Z" fill="rgb(168,71,31)" stroke="rgb(168,71,31)" stroke-width="1.51"/><path d="M2755,617L2730,395L2508,642Z" fill="rgb(166,67,28)" stroke="rgb(166,67,28)" stroke-width="1.51"/><path d="M507,3835L703,3891L692,3607Z" fill="rgb(162,54,17)" stroke="rgb(162,54,17)" stroke-width="1.51"/><path d="M1267,-365L1010,-393L1265,-129Z" fill="rgb(236,120,50)" stroke="rgb(236,120,50)" stroke-width="1.51"/><path d="M-223,3363L-37,3620L24,3343Z" fill="rgb(175,88,46)" stroke="rgb(175,88,46)" stroke-width="1.51"/><path d="M2730,395L2514,132L2455,366Z" fill="rgb(169,76,36)" stroke="rgb(169,76,36)" stroke-width="1.51"/><path d="M1776,-392L1476,-373L1729,-160Z" fill="rgb(225,111,48)" stroke="rgb(225,111,48)" stroke-width="1.51"/><path d="M1267,-365L1476,-373L1010,-393Z" fill="rgb(234,119,50)" stroke="rgb(234,119,50)" stroke-width="1.51"/><path d="M190,-331L-18,-122L287,-107Z" fill="rgb(253,160,85)" stroke="rgb(253,160,85)" stroke-width="1.51"/><path d="M287,-107L-18,-122L208,173Z" fill="rgb(253,159,84)" stroke="rgb(253,159,84)" stroke-width="1.51"/><path d="M2707,3373L2773,3151L2502,3157Z" fill="rgb(105,5,2)" stroke="rgb(105,5,2)" stroke-width="1.51"/><path d="M2719,2834L2773,3151L2761,2352Z" fill="rgb(123,15,4)" stroke="rgb(123,15,4)" stroke-width="1.51"/><path d="M2761,2352L2773,3151L2783,1626Z" fill="rgb(140,24,5)" stroke="rgb(140,24,5)" stroke-width="1.51"/><path d="M2783,1626L2773,3151L2785,1336Z" fill="rgb(146,29,6)" stroke="rgb(146,29,6)" stroke-width="1.51"/><path d="M1010,-393L453,-347L757,-336Z" fill="rgb(245,130,56)" stroke="rgb(245,130,56)" stroke-width="1.51"/><path d="M757,-336L453,-347L695,-152Z" fill="rgb(247,136,61)" stroke="rgb(247,136,61)" stroke-width="1.51"/><path d="M703,3891L1703,3894L956,3891Z" fill="rgb(153,36,6)" stroke="rgb(153,36,6)" stroke-width="1.51"/><path d="M956,3891L1703,3894L1243,3853Z" fill="rgb(149,32,6)" stroke="rgb(149,32,6)" stroke-width="1.51"/><path d="M1513,3832L1703,3894L1789,3648Z" fill="rgb(141,24,5)" stroke="rgb(141,24,5)" stroke-width="1.51"/><path d="M2451,3360L2707,3373L2502,3157Z" fill="rgb(102,3,2)" stroke="rgb(102,3,2)" stroke-width="1.51"/><path d="M2036,3895L2243,3674L1956,3581Z" fill="rgb(117,11,4)" stroke="rgb(117,11,4)" stroke-width="1.51"/><path d="M-297,3089L-222,3606L-223,3363Z" fill="rgb(179,90,46)" stroke="rgb(179,90,46)" stroke-width="1.51"/><path d="M-223,3363L-222,3606L-37,3620Z" fill="rgb(172,86,45)" stroke="rgb(172,86,45)" stroke-width="1.51"/><path d="M-22,3881L250,3870L224,3645Z" fill="rgb(170,79,39)" stroke="rgb(170,79,39)" stroke-width="1.51"/><path d="M-22,3881L224,3645L-37,3620Z" fill="rgb(172,84,43)" stroke="rgb(172,84,43)" stroke-width="1.51"/><path d="M507,3835L250,3870L703,3891Z" fill="rgb(165,62,24)" stroke="rgb(165,62,24)" stroke-width="1.51"/><path d="M2514,132L2284,-154L2199,123Z" fill="rgb(181,90,45)" stroke="rgb(181,90,45)" stroke-width="1.51"/><path d="M1967,-146L1776,-392L1729,-160Z" fill="rgb(214,106,48)" stroke="rgb(214,106,48)" stroke-width="1.51"/><path d="M2513,-141L2284,-154L2514,132Z" fill="rgb(175,88,46)" stroke="rgb(175,88,46)" stroke-width="1.51"/><path d="M2039,-368L1776,-392L1967,-146Z" fill="rgb(208,103,47)" stroke="rgb(208,103,47)" stroke-width="1.51"/><path d="M1476,-373L1776,-392L1010,-393Z" fill="rgb(231,116,49)" stroke="rgb(231,116,49)" stroke-width="1.51"/><path d="M453,-347L190,-331L287,-107Z" fill="rgb(251,152,77)" stroke="rgb(251,152,77)" stroke-width="1.51"/><path d="M14,-388L190,-331L453,-347Z" fill="rgb(252,156,81)" stroke="rgb(252,156,81)" stroke-width="1.51"/><path d="M2478,3628L2707,3373L2451,3360Z" fill="rgb(96,1,0)" stroke="rgb(96,1,0)" stroke-width="1.51"/><path d="M2462,3844L2478,3628L2243,3674Z" fill="rgb(99,2,1)" stroke="rgb(99,2,1)" stroke-width="1.51"/><path d="M2243,3674L2478,3628L2284,3340Z" fill="rgb(102,3,2)" stroke="rgb(102,3,2)" stroke-width="1.51"/><path d="M1703,3894L2036,3895L1789,3648Z" fill="rgb(130,19,5)" stroke="rgb(130,19,5)" stroke-width="1.51"/><path d="M703,3891L2036,3895L1703,3894Z" fill="rgb(145,29,6)" stroke="rgb(145,29,6)" stroke-width="1.51"/><path d="M2284,-154L2039,-368L1967,-146Z" fill="rgb(197,98,47)" stroke="rgb(197,98,47)" stroke-width="1.51"/><path d="M2730,395L2726,90L2514,132Z" fill="rgb(170,79,39)" stroke="rgb(170,79,39)" stroke-width="1.51"/><path d="M2284,-154L2250,-352L2039,-368Z" fill="rgb(191,95,46)" stroke="rgb(191,95,46)" stroke-width="1.51"/><path d="M2755,617L2726,90L2730,395Z" fill="rgb(169,74,34)" stroke="rgb(169,74,34)" stroke-width="1.51"/><path d="M-224,-328L-306,-158L-18,-122Z" fill="rgb(255,167,92)" stroke="rgb(255,167,92)" stroke-width="1.51"/><path d="M-18,-122L-306,-158L-211,139Z" fill="rgb(255,167,92)" stroke="rgb(255,167,92)" stroke-width="1.51"/><path d="M-211,139L-306,-158L-286,349Z" fill="rgb(254,163,88)" stroke="rgb(254,163,88)" stroke-width="1.51"/><path d="M-286,349L-306,-158L-307,891Z" fill="rgb(252,155,80)" stroke="rgb(252,155,80)" stroke-width="1.51"/><path d="M-216,3872L-22,3881L-37,3620Z" fill="rgb(172,86,45)" stroke="rgb(172,86,45)" stroke-width="1.51"/><path d="M250,3870L-22,3881L703,3891Z" fill="rgb(168,71,32)" stroke="rgb(168,71,32)" stroke-width="1.51"/><path d="M2726,90L2513,-141L2514,132Z" fill="rgb(172,85,44)" stroke="rgb(172,85,44)" stroke-width="1.51"/><path d="M1010,-393L14,-388L453,-347Z" fill="rgb(249,143,68)" stroke="rgb(249,143,68)" stroke-width="1.51"/><path d="M190,-331L14,-388L-18,-122Z" fill="rgb(254,164,89)" stroke="rgb(254,164,89)" stroke-width="1.51"/><path d="M2036,3895L2246,3873L2243,3674Z" fill="rgb(111,8,3)" stroke="rgb(111,8,3)" stroke-width="1.51"/><path d="M2466,-411L2250,-352L2284,-154Z" fill="rgb(182,91,46)" stroke="rgb(182,91,46)" stroke-width="1.51"/><path d="M2039,-368L2466,-411L1776,-392Z" fill="rgb(197,98,47)" stroke="rgb(197,98,47)" stroke-width="1.51"/><path d="M14,-388L-224,-328L-18,-122Z" fill="rgb(255,167,92)" stroke="rgb(255,167,92)" stroke-width="1.51"/><path d="M-297,3089L-216,3872L-222,3606Z" fill="rgb(172,86,45)" stroke="rgb(172,86,45)" stroke-width="1.51"/><path d="M-222,3606L-216,3872L-37,3620Z" fill="rgb(172,86,45)" stroke="rgb(172,86,45)" stroke-width="1.51"/><path d="M2701,3868L2767,3601L2478,3628Z" fill="rgb(94,0,0)" stroke="rgb(94,0,0)" stroke-width="1.51"/><path d="M2478,3628L2767,3601L2707,3373Z" fill="rgb(94,0,0)" stroke="rgb(94,0,0)" stroke-width="1.51"/><path d="M2707,3373L2767,3601L2773,3151Z" fill="rgb(99,2,1)" stroke="rgb(99,2,1)" stroke-width="1.51"/><path d="M2246,3873L2462,3844L2243,3674Z" fill="rgb(103,4,2)" stroke="rgb(103,4,2)" stroke-width="1.51"/><path d="M2726,90L2707,-160L2513,-141Z" fill="rgb(172,86,45)" stroke="rgb(172,86,45)" stroke-width="1.51"/><path d="M2513,-141L2466,-411L2284,-154Z" fill="rgb(176,88,46)" stroke="rgb(176,88,46)" stroke-width="1.51"/><path d="M2731,-364L2466,-411L2513,-141Z" fill="rgb(172,86,45)" stroke="rgb(172,86,45)" stroke-width="1.51"/><path d="M2250,-352L2466,-411L2039,-368Z" fill="rgb(187,93,46)" stroke="rgb(187,93,46)" stroke-width="1.51"/><path d="M1776,-392L2466,-411L1010,-393Z" fill="rgb(219,108,48)" stroke="rgb(219,108,48)" stroke-width="1.51"/><path d="M1010,-393L2466,-411L14,-388Z" fill="rgb(236,120,50)" stroke="rgb(236,120,50)" stroke-width="1.51"/><path d="M2036,3895L2701,3868L2246,3873Z" fill="rgb(102,4,2)" stroke="rgb(102,4,2)" stroke-width="1.51"/><path d="M2246,3873L2701,3868L2462,3844Z" fill="rgb(95,0,0)" stroke="rgb(95,0,0)" stroke-width="1.51"/><path d="M2462,3844L2701,3868L2478,3628Z" fill="rgb(94,0,0)" stroke="rgb(94,0,0)" stroke-width="1.51"/><path d="M2726,90L2731,-364L2707,-160Z" fill="rgb(172,86,45)" stroke="rgb(172,86,45)" stroke-width="1.51"/><path d="M2707,-160L2731,-364L2513,-141Z" fill="rgb(172,86,45)" stroke="rgb(172,86,45)" stroke-width="1.51"/><path d="M2755,617L2731,-364L2726,90Z" fill="rgb(171,82,42)" stroke="rgb(171,82,42)" stroke-width="1.51"/><path d="M2785,1336L2731,-364L2755,617Z" fill="rgb(167,68,29)" stroke="rgb(167,68,29)" stroke-width="1.51"/><rect width="2480" height="3508" style="fill: rgb(0, 0, 0); opacity: 0.2;"/></svg>